<?xml version="1.0" encoding="UTF-8"?>
<svg id="Layer_1" data-name="Layer 1" xmlns="http://www.w3.org/2000/svg" xmlns:xlink="http://www.w3.org/1999/xlink" viewBox="0 0 1024 1024">
  <defs>
    <style>
      .cls-1 {
        filter: url(#drop-shadow-6);
      }

      .cls-1, .cls-2, .cls-3, .cls-4, .cls-5, .cls-6, .cls-7, .cls-8, .cls-9, .cls-10, .cls-11, .cls-12, .cls-13 {
        fill: #e97659;
      }

      .cls-14 {
        filter: url(#drop-shadow-14);
      }

      .cls-2 {
        filter: url(#drop-shadow-5);
      }

      .cls-4 {
        filter: url(#drop-shadow-1);
      }

      .cls-5 {
        filter: url(#drop-shadow-2);
      }

      .cls-6 {
        filter: url(#drop-shadow-11);
      }

      .cls-7 {
        filter: url(#drop-shadow-9);
      }

      .cls-8 {
        filter: url(#drop-shadow-12);
      }

      .cls-9 {
        filter: url(#drop-shadow-8);
      }

      .cls-10 {
        filter: url(#drop-shadow-3);
      }

      .cls-11 {
        filter: url(#drop-shadow-10);
      }

      .cls-12 {
        filter: url(#drop-shadow-4);
      }

      .cls-13 {
        filter: url(#drop-shadow-7);
      }
    </style>
    <filter id="drop-shadow-1" x="157.08" y="482.76" width="60" height="80.64" filterUnits="userSpaceOnUse">
      <feOffset dx="7" dy="7"/>
      <feGaussianBlur result="blur" stdDeviation="5"/>
      <feFlood flood-color="#000" flood-opacity=".75"/>
      <feComposite in2="blur" operator="in"/>
      <feComposite in="SourceGraphic"/>
    </filter>
    <filter id="drop-shadow-2" x="421.32" y="518.04" width="31.2" height="31.2" filterUnits="userSpaceOnUse">
      <feOffset dx="7" dy="7"/>
      <feGaussianBlur result="blur-2" stdDeviation="5"/>
      <feFlood flood-color="#000" flood-opacity=".75"/>
      <feComposite in2="blur-2" operator="in"/>
      <feComposite in="SourceGraphic"/>
    </filter>
    <filter id="drop-shadow-3" x="284.52" y="311.4" width="32.4" height="31.2" filterUnits="userSpaceOnUse">
      <feOffset dx="7" dy="7"/>
      <feGaussianBlur result="blur-3" stdDeviation="5"/>
      <feFlood flood-color="#000" flood-opacity=".75"/>
      <feComposite in2="blur-3" operator="in"/>
      <feComposite in="SourceGraphic"/>
    </filter>
    <filter id="drop-shadow-4" x="51.72" y="207.48" width="162" height="340.8" filterUnits="userSpaceOnUse">
      <feOffset dx="7" dy="7"/>
      <feGaussianBlur result="blur-4" stdDeviation="5"/>
      <feFlood flood-color="#000" flood-opacity=".75"/>
      <feComposite in2="blur-4" operator="in"/>
      <feComposite in="SourceGraphic"/>
    </filter>
    <filter id="drop-shadow-5" x="129" y="308.52" width="30.24" height="30.24" filterUnits="userSpaceOnUse">
      <feOffset dx="7" dy="7"/>
      <feGaussianBlur result="blur-5" stdDeviation="5"/>
      <feFlood flood-color="#000" flood-opacity=".75"/>
      <feComposite in2="blur-5" operator="in"/>
      <feComposite in="SourceGraphic"/>
    </filter>
    <filter id="drop-shadow-6" x="-8.04" y="218.76" width="81.12" height="93.12" filterUnits="userSpaceOnUse">
      <feOffset dx="7" dy="7"/>
      <feGaussianBlur result="blur-6" stdDeviation="5"/>
      <feFlood flood-color="#000" flood-opacity=".75"/>
      <feComposite in2="blur-6" operator="in"/>
      <feComposite in="SourceGraphic"/>
    </filter>
    <filter id="drop-shadow-7" x="44.76" y="223.08" width="71.28" height="88.32" filterUnits="userSpaceOnUse">
      <feOffset dx="7" dy="7"/>
      <feGaussianBlur result="blur-7" stdDeviation="5"/>
      <feFlood flood-color="#000" flood-opacity=".75"/>
      <feComposite in2="blur-7" operator="in"/>
      <feComposite in="SourceGraphic"/>
    </filter>
    <filter id="drop-shadow-8" x="287.16" y="408.36" width="32.88" height="32.16" filterUnits="userSpaceOnUse">
      <feOffset dx="7" dy="7"/>
      <feGaussianBlur result="blur-8" stdDeviation="5"/>
      <feFlood flood-color="#000" flood-opacity=".75"/>
      <feComposite in2="blur-8" operator="in"/>
      <feComposite in="SourceGraphic"/>
    </filter>
    <filter id="drop-shadow-9" x="285.24" y="406.44" width="58.08" height="46.8" filterUnits="userSpaceOnUse">
      <feOffset dx="7" dy="7"/>
      <feGaussianBlur result="blur-9" stdDeviation="5"/>
      <feFlood flood-color="#000" flood-opacity=".75"/>
      <feComposite in2="blur-9" operator="in"/>
      <feComposite in="SourceGraphic"/>
    </filter>
    <filter id="drop-shadow-10" x="129" y="308.52" width="30.24" height="30.24" filterUnits="userSpaceOnUse">
      <feOffset dx="7" dy="7"/>
      <feGaussianBlur result="blur-10" stdDeviation="5"/>
      <feFlood flood-color="#000" flood-opacity=".75"/>
      <feComposite in2="blur-10" operator="in"/>
      <feComposite in="SourceGraphic"/>
    </filter>
    <filter id="drop-shadow-11" x="129" y="308.52" width="30.24" height="30.24" filterUnits="userSpaceOnUse">
      <feOffset dx="7" dy="7"/>
      <feGaussianBlur result="blur-11" stdDeviation="5"/>
      <feFlood flood-color="#000" flood-opacity=".75"/>
      <feComposite in2="blur-11" operator="in"/>
      <feComposite in="SourceGraphic"/>
    </filter>
    <filter id="drop-shadow-12" x="85.8" y="58.44" width="395.28" height="495.36" filterUnits="userSpaceOnUse">
      <feOffset dx="7" dy="7"/>
      <feGaussianBlur result="blur-12" stdDeviation="5"/>
      <feFlood flood-color="#000" flood-opacity=".75"/>
      <feComposite in2="blur-12" operator="in"/>
      <feComposite in="SourceGraphic"/>
    </filter>
    <filter id="drop-shadow-14" x="100.68" y="463.56" width="945.36" height="363.84" filterUnits="userSpaceOnUse">
      <feOffset dx="7" dy="7"/>
      <feGaussianBlur result="blur-13" stdDeviation="5"/>
      <feFlood flood-color="#000" flood-opacity=".75"/>
      <feComposite in2="blur-13" operator="in"/>
      <feComposite in="SourceGraphic"/>
    </filter>
  </defs>
  <path class="cls-4" d="M191.62,512.25c-.15.05-.35-.05-.6-.22.3.48.45,1.03.45,1.63.22,5.68-27.81,41.56-26.16,21.63,2.85-5.83,11.25-8.4,12.75-15.1-.45-3.65-5.03-5.7-5.23-9.65-.53-4.05.73-8.7,2.38-12.5,2.4-5.78,12.05-9.65,16.98-5.25l.4.43c.63.63,1.03,1.4,1.18,2.2.33,1.65-.45,3.33-2.4,3.63-1.43.2-2.63-.18-3.85-.3.75.4,1.45.95,2.53.98,1.08.1,2.55-.5,3.65-.83l.3.15c2.08,3.7.65,10.45-2.38,13.23Z"/>
  <path class="cls-5" d="M430.38,526.64c0,.29-.21.51-.46.51-.28,0-.46-.22-.46-.51,0-.26.18-.47.46-.47.25,0,.46.22.46.47Z"/>
  <path class="cls-10" d="M294.74,319.44c-.18.44-.67.8-1.06.99-.25.15-.67-.11-.96-.04.6-.51,1.24-.95,2.02-.95Z"/>
  <path class="cls-12" d="M111.95,387.05c-6.97-8.34-17.51-14.11-26.56-20.41-3.52-2.59-6.07-5.36-9.15-8.23-4.08-3.91-9.11-6.84-11.09-9.91-6.82-12.68-7.56-31.46.07-44.39,1.7-4.06,4.1-7.27,8.06-7.89,5.52-.58,13.29,2.68,12.99,8.81-.53,4.43-8.18,6.89-9.28,12.08-1.83,7.48,5.23,19.21,12.97,17.62.49-.35.34-.93-.22-1.68-1.12-1.48-2.93-3.01-3.57-5.04-3.04-13.8,10.4-17.95,2.69-33.11-1.11-3.6.94-6.99,2.63-10.15,8-14.62,8.06-37.08.18-49.79-4.68-6.32-3.14-16.28,5.09-18.55,5.66-1.6,13.24-.58,18.74,2.18,8.18,5.27,3.73,21.68,4.15,30.07-.41,9.25-2.33,25.33-2.44,36.2,2.18,12.52,15.01,34.8,2.32,44.7-3.23,1.58-7.66,1.24-10.96,2.38-4.12,1.36-2.47,3.69,1.27,4.31,5.2.75,10.67-1.05,15.15,1.72,6.76,4.75,16.45,11.7,17.81,19.8,1.48,9.56,1.33,17.27,5.35,26.67,9.1,24.32,20.53,49.48,27.92,64.21,4.35,8.96,12.9,25.58,15.34,31.2.29.94.39,1.58-.14,2.26-1.26,1.59-9.24,1.48-13.04,3.97-7.59,3.99-12.36,12.31-13.99,20.75-1.08,4.82-.04,10.14-1.51,14.14-3.55,8.54-13.6,5.6-17.8-.9-1.33-1.72-1.92-2.86-2.28-4.78-1.76-10.95-9.48-59.68-12.54-78.84-1.35-8.36-1.93-13.68-5.27-22.48-4.12-8.69-6.77-18.57-12.47-26.41l-.43-.54Z"/>
  <path class="cls-2" d="M137.14,316.66s-.04.04-.04.04v-.04h.04Z"/>
  <path class="cls-1" d="M49.38,279.94c-.84,2.01-3.38,1.87-7.86,3.06-3.82.88-8.67,1.99-13.29,3.06-3.63.84-7.13,1.64-9.88,2.27-4.74.91-6.49,2.09-9.87.99-5.26-2.48-5.68-9.76-6.97-14.92-3.03-15.05-1.85-32.89,6.96-45.78,2.08-2.23,5.2-2.01,7.94-1.34,9.58,2.32,19.06,4.87,28.55,7.75,4.03,1.05,6.22,4.71,6.11,8.9-.14,11.86.1,23.97-1.52,35.61l-.16.4Z"/>
  <path class="cls-13" d="M82.63,288.2c-7.11,3.17-21.66-1.15-28.05-4.58-2.3-1.46-1.54-4.54-1.2-7.12,2.21-11.68,3.07-22.15.88-33.83-1.21-6.88,5.27-10.38,11.08-10.5,6.91.4,16.34-3.84,21.11,2.46,11.14,11.17,9.75,45.2-3.34,53.31l-.49.25Z"/>
  <path class="cls-9" d="M295.42,416.62c.7.03,1.45-.25,2.13.33.55.5.25.83.1,1.43-.43,0-.88.1-1.43-.13-.6-.18-1.38-.88-.8-1.63Z"/>
  <path class="cls-7" d="M319.08,431.05c-.03-.18-.03-.33-.03-.5-.5.73-1.43.93-3.18.13-.05-.07-.13-.15-.2-.22.05.13.03.25-.03.38l-.07.08c-.58-.1-16.98-6.25-15.45-7.35-.88-.18-2-.35-2.85-.68l.3.3c-.85,0-2.13.33-3.15-.03-.5-.15-1.6-.63-.93-1.6l2.1-.23c.15.13.28.25.43.38-.05-.38.13-.83.6-1.38.53-.73.65-1.7,1.28-1.88.55.1,1.05.2,1.48.3.8.15,1.48.25,2.2.32,1.08.1,2.25.13,4.1.05.7.03,1.35.05,1.93,0,1-.03,1.85-.25,2.58-1.03.13-.08.2-.18.28-.28.68-.43,1.88-.53,3-.68-.1-.05-.15-.18-.1-.38.45-2.3,5.1-3.48,6.33-.65.73,1.68.8,3.75-.28,5.3v.03c.43,1.4.33,3.15.3,4.4v.05c1.38-.2,1.33,1.68,1.43,2.7.15,1.83-.2,2.55-2.05,2.45Z"/>
  <path class="cls-11" d="M137.14,316.66s-.04.04-.04.04v-.04h.04Z"/>
  <path class="cls-6" d="M137.14,316.66s-.04.04-.04.04v-.04h.04Z"/>
  <path class="cls-8" d="M444.66,450.55c-5.35-2.1-6.28-8.83-3.38-13.55l.28-.5c24.78-32.03,24.71-47.61-9.53-70.54-3.8-3.78-3.38-8.7-5.08-12.9-3.85-5.88-5.98-12.35-3.35-19.58,14.33-29.46,35.66-30.58,25.66-72.34-3.23-11.38-9.83-19.78-17.28-27.83-11.08-12.68-30.83-19.73-39.16-35.21-1.1-2.08-3.6-6.13-5.48-3.1-2.45,5.8-.68,16.13-5.3,21.03-12.03,8.7-31.43,9.85-45.51,5.1-8.25-2.55-41.34-35.23-17.95-35.23,3.45,1.28-2.18,5.03-1.03,8.5,8.48,16.15,26.73,28.96,44.81,26.41,20.48-8.13,21.78-5.58,19.56-29.68-1.15-25.16-30.08-26.53-48.41-22.33-6.03.75-11.83,6.2-17.23,5.85-3.58-4.1,24.78-12.28,28.28-12.55,13.53-3.45,23.91-1.15,34.98,5.5,8.88,2.55,5.83-13.83,6.53-18.58-.6-12.9-4.7-28.21-16.13-34.21-4.78-1.78-13.18-.2-15.3,4.88.3,3.55.5,3.85-3.25,4.28-4.43.08-5.58,3.95-9.78,5.13-3.15.78-2.4,2.08-2.53,4.43-.35,1.73-2.23,2.18-3.8,3.05-13.3,4.95-17.8,20.26-24.46,32.41-4.03,5.58-5.93-.65-4.2-4.4,2.28-5.85,5.45-10.6,8.28-15.65,2.23-4.13,8.58-9.45,11.88-14.05,2.15-3.7,4.03-6.75,7.68-9.2,3.13-2,3.7-5.05,3.88-8.38.33-2.48,2.43-.23,4.93-1.28.8-.23,1.63-.63,2.5-1.28,3.08-3.8,14.33-10.45,8.6-14.1-8.48-3-19,3.7-24.83,9.73-2.9,2.83-6.78,9.8-6.4,4.93,1.25-9.03,8.75-14.4,14.35-20.36,2.73-7.28-16.18-6.4-20.16-8.85-3.45-1.08-6.68-2.9-9.73-4.83-31.51-22.31-66.49-19.05-94.3,9.03-5.8,5.53-9.28,11.73-13.85,18.25-4.9,6.18-11.65,10.55-16.28,16.85-9.45,12.98-15.6,29.46-18.93,45.29-2.48,13.83,4.13,27.06,4.13,40.99-.73,14.98-2.43,28.96-7.23,41.24-7.38,17.58-17.93-28.06-21.51-32.56-6.65-14.4-20.53-21.11-36.01-21.41-4.53-.55-12.73,1.33-8.48,7,5.38,6.38,22.38,3.68,26.61,14.28,3.9,12.5,1.05,27.18,1.6,41.01.35,10.05-3.53,19.08-.35,28.83,5.13,13.85,10.78,25.81,13.95,39.99,4.15,7.68,12,10.5,18.15,17,4.53,4.63,6.93,10.2,9.38,16.15,7.08,18.4,15.6,37.18,24.66,55.14,13.3,22.76,36.01,72.04,66.69,48.21,11.35-12.35,17.25-30.71,28.26-42.51,2.23-2.2,7.9-2.5,9-5.48-.35-1.38-1.8-2.45-3.43-3.53t-.05-.03c-1.2-.75-2.48-1.48-3.48-2.28-.3-.22-.58-.48-.8-.73-4.7-3.5-7.73-7.98-9.45-12.95-.28-.78-.5-1.58-.7-2.38-1.45-5.68-1.4-11.9-.3-18.05.05-.33.13-.68.2-1.03,1.23-6.33,3.5-12.5,6.23-17.9,15.08-32.26-12.43-8.9-22.21.45-7.85,7.15-13.28,16.6-17.05,27.73-2.58,8.6-7.5,21.76-16.18,9.88-6.53-8.95-14.05-18.7-20.11-27.91-7.63-12.65-15.08-24.08-20.08-38.18-9.83-19.08-18.08-37.96-24.06-57.06-3.2-6.88,2.58-10.55,6.1-17.63.65-1.08,3.4-8.18,4.38-4.73,1.7,3.23-3.83,21.43,2.15,20.18,6.6-2.93,13.85-8.15,16.38-15.58,3.7-9.78-2.65-19.76-1.8-29.51,3.3-5.78,11.73,18.55,11.33,22.03.75,9.35-.5,18.7,1.1,27.76,1.45,8.45,5.43,17.88,7.4,26.01,3.6,14.6,7.68-9.88,6.93-14.3.33-8.03-3.25-13.38-2.78-21.06.73-1.38,1.9.5,2.65,1.6,4.38,9.23,9.58,17.58,13.03,26.18,1.58,5.45,1.63,12.33.4,18.03-2.68,8.03-3.95,14.68,5.13,5.95,16.5-19.33,14.28-26.63,6.93-49.24.8-2,8.73,9.48,10.45,13.15,1.65,2.43,2.85,9.93,3.98,10.13.78.13,1.85-1.78,2.78-4.63,1.28-3.95,2.05-8.1,2.08-11.85.53-15.28,3.65.4,4.78,5.6,1.45,5.65,4.3,11.2,5.6,16.8,1,7.85-1.5,18.1-2.13,26.56-.08,3.1-4,9.95.43,10.55,8.9-1.68,15.23-9.28,21.26-15.38,2.95-1.43,4,5.68,4.63,7.55,5.43,28.56-30.41,45.09,1.63,71.14,7.03,6.6,18.68,9.28,26.86,12.28,12.15,8.63,3.98,31.26,19.1,39.99,38.51,24.61,20.28,48.29,49.96,67.87,7.4,4.93,17.6,12.53,27.43,11.6,5-.63,9.73-5.45,7.9-6.5-1.28-1.03-6.45-.05-10.58-.83-16.88-5.58-8.78-31.46,1.13-41.09,8.1-8.43,16-13.53,26.86-18.15,4.65-1.58,11.78-7.45,12.05-11.83-.45-3.35-7.88-.3-12.48-2.7ZM324.08,190.14l1.58-.4,2.43-.33,1.9-.22,1.45-.15c.13.05,1.63-.33,1.63-.33,1.8-.55-.03-1.83-.03-1.83l-1-1.15c-1.33-1.95.33-2.8.33-2.8l.98-.45.98-.25,1.7-.33,2.8-.35,1.33-.15,1.6-.28.63-.1,1.03-.3,2.55-1.15,3.55-1.9,3.53-1.9,2.6-1.33,1.75-.75,1.38-.48.75-.2.68-.08h.5l.38.08.05.07-.05.28-.25.4-.88.98-1.7,1.53-3.85,2.95-2.98,1.98-.93.55-.68.38-.73.38-.53.25-.47.2-.38.15-.43.13-.25.05-.53.13-.6.15-.68.2-3.53,1.2-2.53,1.23c-2.3,1.43.7,1.83.7,1.83l3.38.28,3.88.08h5.93l1.5.03,1.6.1,1.73.2.68.15.28.13.2.15.1.15-.03.15-.08.15-.2.23-.6.15-3.25.48-3.33.33-3.83.28-4.58.33-4.1.4-.58.23-.22.3-.08.28.23.4.33.4.38.43.5.48,1.28.93,2.48,1.6,2.05,1.3,2.38,1.58,2,1.25,2.13,1.4,1.25.9.9.73.58.53.28.48-7.1-2.1-4.88-2.05-4.08-1.93-10.35-5.43-4.75-2.8-.08-.22.33-.25ZM361.34,117.52c1.18.05,2.1.55,3.15,1.03.13,1.68-.83,3.13-2.4,3.55-1.1-.38-2.28-1.18-2.35-2.5-.08-1.15.65-2.08,1.6-2.08ZM353.04,128.42c.7-.02,1.43.78,2.15.85.18,1.03-.33,2.33-.05,3.33-.83.1-1.75.25-2.78.1-.73-.15-1.5-1.18-1.4-2.55.1-1.33,1.23-1.65,2.08-1.73ZM346.09,106.37c.25.55.03,1.15-.48,1.45-.53.3-1.4.18-1.5-1.38.93-1.15,1.75-.63,1.98-.07ZM137.41,315.72v-.03h.03s-.03.03-.03.03ZM307.18,213.54c-1.58,1.03-8.75-3.2-9.63-4.9-1.3-2.8,2.55-9.83.75-12.03-3.4-2.43-5.43,18.43-7.95,18.15-1.68-.98,2.35-16.35-1.3-14.15-.65.5-1.78,1.48-2.43,1.6-2.1-.18,3.5-7.38,4.43-8.63,2.2-2.7,4.5-4.95,6.05-4.63,5.48,3.5,6.93,13.18,7.93,19.25l2.15,5.33ZM306.08,158.6l-.18.15c-1.18-.3-3.98-7.35-4.98-8.25-.53-.65-.85-.6-1.23-.03-3.33,8.68-6.55-2.13-8.95-5.53-1.55-3.3-13.9-11.28-14.23-14.98.45-1.23,12.4,6.2,14.5,9.45,2.1,3.33,9.63,12.23,6.18,2.3-1.2-4.33-7.1-17.2-4.23-15.58,1.85,2.43,6.53,13.25,7.85,16,1.05,2.33,1.83,3.48,2.93.6.85-1.48,3.48-17.95,4.73-18.35,1.68,7.15-.93,27.16-2.4,34.21ZM264.22,92.99l.5-.4c6.25-5.45,15.08-4.33,22.78-4.5,13.05-1.18,27.41,9.1,28.13,23.33-.88,4.13-4.05-5.35-5.3-6.7-2.33-3.73-5.8-7.13-9.78-8.88-2.95-1.33-6.18-1.85-9.38-1.68-7.5.43-11.63,7.08-17.85,8.63-5.4,1.38-14.35-1.88-15.15,6.58-1.4,12.95,6.03,24.08,11.9,35.36,3.88,6.08,13.45,11.7,19.78,18.13,2.18,2.33,3.75,4.83,1.98,7.45-2.5,3.13-7.58,4.55-6.48,9.55.1,1.93-.05,3.65-1.8,4.7-1.75,1.18-7.23,5.58-9.15,5.28-1.03-.4,2.55-5.48,2.6-6.28.4-1.3-14-1.43-15.2-2.45-3.35-2.63,11.53-5.4,12.6-6.88.6-1.03-6.1-5.58-6.1-6.68-.63-2.6,16.9,3.45,16.7,1.35-1.1-4.2-5.53-7.63-7.98-11.3-7.63-9.93-19-15.45-24.16-27.03-5.78-13.18.15-29.78,11.35-37.58ZM261.79,216.42c-3.88,3.65-9.7,5.18-14.35,2.2-10.8-5.8-18.13-17.25-20.73-29.73-1.4-6.4,1.8-12.75,3.38-18.73,1.33-8.18,6.05-17.03,13.88-20.86,3.63-1.85,11.38-1.1,14.1,1.03.38.48.15.93-.65,1.33-2.53,1.18-6.08,1.73-8.53,3.38-7.48,4.68-6.53,15.1-12.9,21.21-5.2,5.23-5.35,8.35.73,13.08,4.08,3.7,6.88,7.73,10.88,11.15,4.2,3.45,9.78,4.98,15.15,4.18,9.23-2.03,13.85-13.45,22.33-17.55,10.15-5.63,19.15-5.65,4.38,2.1-11.48,5.55-18.95,18.8-27.23,26.83l-.43.4ZM321.78,236.45l-.2.58c-3.6,10.73-12.83,16.83-22.56,20.73-4.23,2.5-9.15,5-13.8,2.3-2.15-1.1-3.83-2.7-5.75-4.23-4.55-3.95-11.85-6.98-14.7-13.13-2.1-8.1-1.58-17.1,1-24.98.9-2.55,3.73-7.05,3.6-.73-.07,6.7-1.43,13.83.4,20.41,1.48,4.9,4.75,7.8,8.83,12,1.5,1.48,3.48,3.43,5.48,3.58,1.48.13,2.78-.83,3.98-1.75,4.33-3.43,8.73-6.15,13.48-8.55,18.25-7.55,16.43-13.48,14.83-31.26,0-.78-.05-1.93.55-2.2,1.48.1,2.2,2.78,2.58,4.23,1.33,6.65,5.1,16.08,2.3,23.01ZM425.36,525.2c.25,0,.43.2.43.48s-.18.5-.43.5c-.3,0-.48-.22-.48-.5s.18-.48.48-.48Z"/>
  <g class="cls-14">
    <path class="cls-3" d="M1023.67,648.51c-.77-1.52-9.26-4.22-9.26-4.22,0,0-5.49-1.42-9.49-2.12-4-.74-6.23-.95-6.23-1.2s.26-8.33,0-9.28c-.26-.95-1.26-4.27-1.51-5.23-.23-.95-3.49-5.01-3.49-5.01,0,0-4-2.83-5.49-3.08-1.51-.25-12.23,0-13.75,0s-14.23,3.32-14.23,3.32c0,0-9.23,5.01-10.49,5.47-1.23.49-10.75,5.47-11.49,5.72-.74.25-10.89,10.7-10.89,10.7l-4.83,3.81h-4.49s5.49-3.81,6.72-6.42c1.26-2.61,3.52-4.76,4.26-6.89.74-2.15,6.74-6.42,6.74-6.42,0,0,11.97-5.47,15.23-7.87,3.26-2.37,5.23-1.66,7-4.52,1.74-2.86,4.74-1.91,6.23-3.57,1.49-1.66,4.69-7.84,4.69-7.84,0,0-.43-5.23-.2-9.04.26-3.81.26-5.47,0-8.33-.23-2.86-1-2.37-1.74-3.81-.74-1.44-3.23-2.15-6-3.32-2.74-1.2-3.74-5.01-3.49-7.62.26-2.61.26-7.13,0-7.73-.26-.63-3.74-7.24-4.74-7.51-1-.27-3.74-.93-5,.03-1.23.95-6.74-.24-9.72,0-3,.25-6.26,3.81-8.26,4.76-2,.95-3.49,4.98-6.23,6.18-2.74,1.2-6.26.95-8,.71-1.74-.25-8.49-2.15-9.23-2.86-.74-.74-6.26,5.01-7,5.47-.74.49-5.23,8.33-6,9.04-.74.71-4.97,13.8-4.97,13.8l-2.51,15.71-.37.27s-.49.25-.71.41c-.2.14-.37.27-.57.27s-.49.03-.49.03c0,0-1.17-.19-1.34-.35s-1-.35-1.49-.9c-.51-.57-.23-.38-.6-.93-.37-.54-1-1.39-1.71-2.29-.69-.93-.83-1.17-1.06-1.61-.26-.44-.6-.71-.6-.71,0,0-1.74-4.76-1.94-4.76-.23,0-1.34-.3-1.66-.82-.34-.52-.69-.52-1.06-1.12-.37-.6-.86-1.91-.86-1.91l-.17-1.2.74-.82s1.09-.57,1.29-.76,1.54-.71,1.54-.71l2-1.47s1.54-.38,1.57-.52c.06-.11.91-.25,1.37-.63.46-.41.74-.44.74-.76,0-.3.54-.38.6-1.03.03-.63.17-1.39.03-2.04-.11-.68-.29-2.07-.31-2.5-.06-.44,0-1.55-.06-1.66-.03-.14-.4-1.72-.74-2.12-.34-.38-2.26.08-2.37.14-.11.03-3.2-.08-3.2-.08,0,0-.83.46-1.17.63s-1.2,1.28-1.37,1.52c-.17.22-.66,1.33-.8,1.77-.11.44,0,1.63,0,2.15s.51,1.58.46,2.34c-.03.74-.57,1.58-.66,1.74-.09.16-2.4,1.06-2.4,1.06,0,0-1.91.98-2.91.98s-1.51-.57-1.8-.74c-.29-.16-1.11-1.55-1.11-1.55l-.77-1.72-.14-1.42.57-1.2,1.03-2.91,1.46-.14s1.63-.19,2.17-.76c.54-.54.97-.74,1-.9.06-.16.63-1.5.63-2.89s-.09-1.12-.09-1.74-.2-1.88-.49-2.23c-.31-.35-1.06-.87-1.71-1.06-.66-.22-1.51-.57-1.8-.6-.29-.05-2.09.35-3.37.46-1.29.14-1.69.44-2.2.57-.49.11-.86,1.23-1.03,1.47-.17.22-.14,1.39-.14,1.52,0,.16.31,1.2.91,4.46.63,3.24-.2,1.52-.37,1.66-.17.11-2.6.38-2.94.46-.34.08-.8.05-.91,0-.14-.03-1.89-.82-2-.95-.11-.11-1.43-1.82-1.8-2.1-.37-.27-.66-.54-1-1.03-.31-.46-1.14-1.93-1.14-2.1s.77-2.23.77-2.23l1.43-.71s2.6-3.38,2.77-3.73c.17-.35.43-1.39.34-1.58-.09-.19-.03-2.1-.11-2.37-.09-.27-1.06-2.1-1.17-2.31-.14-.19-1.83-1.25-1.97-1.33-.11-.08-3.14-.65-3.4-.65-.11.05-1.37.44-2.8.82-1.4.35-1.23,1.85-1.4,2.01-.17.16-.54,2.7-.54,3.21s.71,2.45.63,3.21c-.09.73-.74,1.17-1.17,1.14-.43-.03-1.37-.76-1.74-.84-.37-.08-2.57-1.42-2.57-1.42,0,0-1.51.25-2.14.11-.63-.11-.63-.03-.94-.38-.34-.35-2.09-1.63-2.29-1.91-.23-.27-.09-.84-.14-1.2-.03-.35-.86-2.12-1.14-2.5-.31-.35-.06-3.59-.09-4.03-.06-.44,1.06-1.91,1.37-2.31.29-.38-.23-6.02-.23-6.02,0,0-2.03-1.63-2.4-1.63-.34.05-1.74,1.36-2,1.61-.26.22-2.46,2.72-3.66,3.51-1.2.79.81,6.47-.73,6.71-1.54.25-4.9-5.43-5.55-5.57-.66-.11-3.63-.27-3.8-.22-.14.03-.46,1.47-.49,1.74-.03.27-.29,2.69-.57,2.99-.31.33-1.71,1.88-1.97,2.12-.26.22-.46,2.48-.54,2.72-.09.25,8.53-.36,8.44.24-.09.6-1.26,1.91-1.26,1.91,0,0-.83,1.42-1.49,2.37-.66.95-.66,2.4-.66,2.86v1.74s1.14,6.34,1.14,6.83c0,.46,5.17,2.04,5.17,2.04l.6.29s-1.25.04-.6-.29c.66-.3-.9,3.98-.24,2.4.66-1.61-.49-2.86,0-3.65.49-.79-.49-2.56,0-3.19.49-.63,3.17-5.06,4-5.39.83-.33,2.31.33,2.31.33l2.69,1.42,2.97,2.86s4.17,1.28,5,1.58c.83.33,2.51,2.07,2,3.18,0,0-2.66.63-3.49.63s-.83,0-2.17-.16c-1.34-.16-1,0-1.83,0s-2.17.33-3,.49c-.83.16-2.17,1.25-2.17,1.25l-.31,2.4s.17,2.2.17,2.69c0,.46,1.83,2.07,2.31,2.53.51.46,4.83.16,4.83.16l4-1.28s3.49-3.16,3.83-3.81c.34-.63,1.66-2.99,1.66-2.99l2.17-.65,3.49,1.12,1.83,3.02,1.51,1.91-.51,3.48-.49.16c-.51.16-3,.3-3,.3,0,0-4.66,1.28-5.17,1.61-.49.3,0,4.74,0,4.74l.69,1.61,1.49,2.04h2.17l5.83-1.58.66-2.53v-2.53l2.66-.95h2.83l3.17.95s2.31,4.44,2.66,4.9c.34.49,2.83,6.04,2.83,6.04l2.17,6.02,1.49,3.65s4.66,4.11,5,5.23c.34,1.12-.49,2.07-1.17,2.53-.66.49-3.49.65-3.49.65l-2.66-1.44s-3.34-4.11-3.52-4.74c-.14-.65-7.32-7.46-7.8-7.46-.51,0-9.49-2.23-11-2.53-1.49-.33-7.14-.82-8.32-.95-1.17-.16-5.17-1.74-7.17-1.74s-11.15.95-11.15.95c0,0-8.83,3.32-9.66,3.62-.83.33-4.83,5.09-4.83,5.09,0,0-5.66,3.81-6.14,4.11-.51.33-7.49,1.44-8.34,1.74-.83.33-4.97,2.56-5.49,3.02-.49.49-2.83,6.02-3.32,6.51-.51.46,3.49,3.97,3.49,3.97l2.66,6.02s-3.49,6.51-4.49,7.92c-1,1.44-1.66,9.53-1.66,9.53l4.32,5.55s13.83-.49,14.32-.49c.51,0,12.83-1.25,13.66-.82.83.46,14.32-2.83,14.8-2.83.51,0,9.83-1.58,10.32-1.58.51,0,7.66.46,7.66.46,0,0,5.52,4.14,5.52,4.6,0,.49-1.34,4.6-1.34,4.6l-4.83,1.12-8.97,1.74s-7.34.63-10.49.79c-3.17.16-7,.33-9.83.65-2.83.3-8.32,1.58-9.17,2.04-.83.49-7.49,2.23-8.49,2.53-1,.33-5.14,4.14-5.83,4.6-.66.49-9.14,9.36-9.14,10.15s6,5.23,6.83,6.04c.83.79,4,8.87,4,9.66s-2.83,7.3-4.52,9.5c-1.66,2.23-3.83,13.01-3.97,15.38-.17,2.4,2.49,8.25,2.66,8.9.17.63,14.15,2.04,14.15,2.04l11.66,2.56s9.66,2.2,11.49,2.2,9.14.33,10.32,0c1.17-.3,7.66-3.65,7.66-3.65,0,0,8.14-7.3,9.14-9.2,1-1.91,2.51-9.34,2.66-12.03.17-2.69,4.17-13.64,4.17-13.64,0,0,6.32-7.95,7.83-9.53,1.49-1.58,7-6.51,7.32-7.13.34-.63,6.17.16,6.17.16,0,0-1.17,8.41-2.17,9.34-1,.95-4.32,4.93-6,6.34-1.66,1.44-3.14,5.42-3.83,6.51-.66,1.12-1.31,8.08-2.03,9.53-.69,1.42.54,14.1.03,15.54-.49,1.42,4.52,11.41,4.66,12.52.17,1.12,5.17,8.71,5.69,9.99.49,1.28,10.97,3.97,11.97,4.11,1,.16,8.14-3.48,9-4.44.83-.95,10.63-5.39,10.63-5.39l9.34.16s7.8,2.86,8.32,3.18c.49.3,6,5.39,6.66,6.18.66.79,9.32,1.25,9.32,1.25l15.15-8.08s5.83-2.86,5.49-3.95c-.31-1.12,3.17-4.3,3.17-6.83s.34-7.46.34-8.71-.83-6.83-1-7.46,5.32-3.97,6.14-5.23c.83-1.28,2.51-7,2.17-7.79-.34-.79,0-9.04,0-9.04,0,0-2-7.6-2.17-8.09-.17-.46-8.8-6.02-9.49-6.02s-11.15-7.13-11.8-7.46c-.69-.33-9-3.02-10-3.32-1-.33-11.66-3.35-12.15-3.35-.51,0-6.17-4.74-6.17-4.74l10,.95,14.63,3.78,14.83,5.55,8.14,2.69,15.66,3.97,8.66-1.58h3l4.66-1.44s1.66-5.23,1.66-5.72c0-.46,4.66-5.06,4.66-5.06l5.83-1.91s7.57-15.92,7.4-17.59c-.17-1.69-.31-7.62-.31-7.62,0,0,.74-4.52,0-6.02ZM958.23,670.97c-.83.27-2.63.14-5.63.14s-3.83-.14-3.83-.14h-5.06c-1.54,0-5-.27-5.92-.35-.03-.03-.06,0-.06,0-.06-.03-.11-.03-.17-.03s-.09-.03-.11-.03l-.51-.08c-.26-.05-.49-.11-.71-.14-.31-.05-.63-.11-.89-.16-.17-.03-.31-.05-.46-.08-.26-.03-.51-.08-.74-.14-.49-.08-.91-.16-1.29-.22-.09,0-.14-.03-.23-.03-.29-.05-.49-.08-.66-.11-.06-.03-.11-.03-.17-.03-.06-.03-.11-.03-.14-.03-.31,0-1.51.14-2.74.24-.74.05-1.49.11-2.06.11-1.51,0-4.69,1.42-5.49,1.74-.86.3-3.34.93-3.34.93l-3.83,4.52-1.51,4.52.03.03,1.09,1.39,3.23,4.14,6.49,2.72h.03s.2.08.49.16c.63.19,1.77.57,3.14,1.01.26.08.51.16.77.27.63.19,1.26.38,1.91.6.37.11.71.25,1.09.35.49.16.94.3,1.37.46.03.95.06,2.01-.09,2.2-.29.38-2.06,1.31-2.74,1.58-.69.25-2.8,5.85-2.8,5.85l-.06,2.59s.14,4.57,0,4.98c-.14.38-.43,2.99-.69,3.51-.29.52-2.6,3.13-3.57,4.41-.94,1.31-4.52.14-5.6,0-1.09-.14-3.69-2.48-5.74-5.58-2.03-3.13,0-3.4,0-3.92s-5.6-3.92-6-4.06c-.43-.14-2.34.54-3.03.65-.69.14-1.63,2.23-2.34,2.61-.66.38-5.17.79-6.14.79s-2.71-1.93-3.14-2.61c-.23-.38-.63-1.33-.89-2.01.23-.71.49-1.5.74-2.26.4-1.17.74-2.29.91-2.89t0-.05c.09-.22.11-.35.11-.41,0-.14.29-.46.71-.84.23-.25.51-.49.8-.71.14-.11.26-.22.37-.3.97-.74,1.94-1.47,1.94-1.47l-.03-.03s-.34-.82-.77-1.88c-.11-.19-.2-.41-.29-.63-.2-.44-.4-.9-.6-1.36-.14-.33-.26-.65-.4-.95-.11-.27-.23-.52-.31-.74-.06-.14-.09-.24-.14-.33-.09-.19-.17-.33-.2-.44-.03-.08-.06-.16-.09-.19-.34-.65-1.83-3.95-2.51-3.95-.49,0-4.83.08-7.6.22-.91.03-1.66.05-2.06.08-.43.05-1.09.19-1.86.41-.06,0-.11.03-.17.05-.31.11-.66.19-1.03.3-.37.08-.74.19-1.09.33-.6.16-1.2.35-1.74.52-.09.03-.17.05-.26.11-.46.14-.83.27-1.17.35-1.66.46-3.14,3.95-3.8,4.57-.4.38-1.09,1.96-1.77,3.4-.14.25-.26.46-.37.71-.09.16-.17.35-.29.52-.11.19-.2.35-.31.52-.14.25-.29.44-.43.57-.74.71-2.09,2.26-3.17,3.57-.34.44-.69.84-1,1.2-.11.14-.26.3-.43.54h-.03c-1.6,1.06-3.54,2.23-4.86,2.29-2.46.14-1.91-1.14-3.8-3.65-1.94-2.48-.69-4.03-1.11-5.2-.4-1.2,2.17-3.65,3-5.61.83-1.96.97-2.61.29-3.02-.69-.35-1.11-1.14-4.26-3.1-3.14-1.96.14-3.13-.4-5.2-.54-2.1,2.6-3.67,2.6-4.06,0-.41,4.09-1.44,4.66-1.82.09-.08.29-.16.6-.25h.03c.54-.08,1.17-.16,1.8-.24.26-.03.51-.05.74-.11,1.29-.16,2.54-.27,3.4-.35.57-.03.94-.03,1.09,0,.06.03.14-.03.29-.11.14-.08.34-.22.57-.38.4-.33.86-.76,1.37-1.25l.51-.49c1.06-1.06,2.14-2.26,2.77-2.99.17-.22.31-.38.4-.52.06-.05.09-.11.09-.14.17-.49,0-2.69,0-2.69,0,0-.23-.19-.57-.46-.94-.82-2.8-2.4-4.17-3.59h-.03c-.51-.46-.97-.87-1.29-1.12h-.03l-.26-.24c-.06-.08-.11-.11-.14-.14-.06-.05-.26-.14-.54-.22-.29-.08-.69-.19-1.17-.3-.46-.11-.97-.25-1.54-.35-.86-.19-1.8-.41-2.69-.57-.6-.14-1.17-.27-1.69-.38h-.03c-.54-.14-1.03-.24-1.43-.33-.63-.16-1.06-.3-1.23-.38-.17-.11-.74-.35-1.49-.68-.31-.11-.66-.27-1.03-.44-.6-.24-1.26-.54-1.94-.82-.8-.33-1.63-.68-2.4-1.01-.4-.19-.83-.35-1.2-.52h-.03c-.34-.16-.69-.3-1-.44-.77-.35-1.37-.63-1.74-.79-.06-.03-.11-.05-.17-.08-.26-.14-.86-.27-1.63-.41-.29-.05-.6-.11-.94-.16-.63-.08-1.34-.19-2.03-.27-.29-.03-.54-.08-.83-.11h-.03c-.14-.03-.26-.08-.37-.11-1.8-.65-2.2-3.92-2.31-4.57-.14-.65,1.49-2.48,1.49-2.48l3.29-1.17,4.26-2.34,3.69-1.31,5.32.24,4.52-2.45v-2.23l3.69-2.34h3.92c.51,1.55,1.2,3.57,1.49,4.49.06.25.11.41.14.49.09.35.94,1.25,1.66,1.99.17.14.29.27.43.44.09.08.14.14.2.19.26.24.4.38.4.38l2.74,1.5v.03l3.89,2.12,1.8,2.59.06.11,2.31,3.35,5,13.94,3.31,9.5v.03l5.69.79,4.63-1.12h.03s-.14-1.61-.31-3.46c-.23-2.37-.51-5.15-.71-5.42,0,0-.03-.03,0-.05-.09-.35.57-2.18,1.26-4.08.09-.22.17-.44.23-.63.06-.19.14-.41.23-.63.31-.84.57-1.61.74-2.23.17-.54.26-.93.23-1.12-.17-.93-.17-3.81-.51-4.93-.31-1.09-2-7.89-2.17-9.96-.14-1.61-.57-1.58-.74-1.5-.03.03-.06.03-.06.03-.03-.35-.31-2.72-.69-5.17-.09-.49-.17-.98-.26-1.47v-.03c.49-1.01,1.14-1.8,1.09-1.99-.14-.38,1.23-4.95,1.23-4.95,0,0,2.31-5.2,2.71-6.51.43-1.33,3.29-3.78,3.29-3.78l4.26-3.27s6.29,1.72,6.83,1.96c.54.25,5.17-.76,5.17-.76,0,0,2.37-1.85,3.03-2.12.69-.24,4.23-1.01,4.23-1.01l.83,1.42s1.11,5.36,1.11,6.23c0,.93-.43,3.02-.43,3.02,0,0-.09.19-.2.49l-.51.41c-.29.22-.6.44-.91.68-1.54,1.12-3.29,2.29-4.34,2.94-.86.54-2.09,1.61-3.26,2.72l-.51.49c-.17.11-.34.27-.51.46-.17.16-.31.33-.49.46-.14.16-.31.3-.46.44s-.29.3-.43.41l-.4.38c-.26.25-.49.44-.66.6-.11.05-.2.14-.26.22h-.03c-.06.05-.14.14-.2.22-.23.25-.49.65-.77,1.14-.09.11-.17.24-.23.38-.09.14-.17.27-.26.44-.2.35-.43.76-.63,1.17-.57,1.03-1.14,2.18-1.63,3.08v.05c-.29.49-.51.9-.69,1.22l-.03.03c-.09.11-.14.19-.2.27-.03.03-.03.08-.06.11-.03.05-.09.11-.11.14-.26.25-.86,1.23-1.54,2.5-.17.38-.4.79-.63,1.23-.23.41-.46.84-.69,1.28v.05c-.43.87-.89,1.74-1.26,2.53-.31.63-.57,1.17-.77,1.61-.09.16-.14.3-.2.44-.14.24-.23.44-.26.52-.03.05-.06.19-.03.38-.14,1.91.54,9.53.54,10.7,0,.14.06.25.14.35.49.52,2.29.41,3.54.25h.03c.54-.05,1-.11,1.11-.11s.63-.03,1.37-.05c.11-.03.23-.03.34-.03.26,0,.54-.03.86-.03,1-.05,2.2-.11,3.26-.16.31-.03.63-.03.91-.05.29-.03.54-.03.77-.05.23-.03.46-.03.66-.05.2,0,.37,0,.49-.03.37-.03.74-.19,1.06-.41h.03c.11-.08.23-.16.34-.25.03-.03.09-.05.11-.11.31-.22.63-.52.91-.84.43-.44.83-.9,1.2-1.25.09-.08.17-.14.29-.22.17-.14.31-.24.51-.38,1.26-.76,3.32-1.74,4.37-2.7.2-.16.37-.35.49-.52s.31-.38.54-.6c.23-.25.51-.49.83-.74.46-.35.94-.73,1.49-1.17.26-.19.49-.38.71-.57.34-.27.69-.57,1.03-.87.06-.05.11-.11.17-.14,1.09-.98,2.11-2.04,2.74-3.13.37-.05.63-.11.77-.14.94-.25,6.29-.25,6.72-.25.4,0,2.03,3.78,2.03,3.78l.57,6.64,2.43,3.1s3.14.14,3.72.14,6,3.54,6.29,3.92c.26.38,1.09,5.34,1.09,6.37s-1.77,1.55-2.57,1.82Z"/>
    <path class="cls-3" d="M364.63,490.46c-13-22.86-51.28-23.95-70.71-8.57-23.34,17.97-16.27,56.81-14.82,82.6,1.54,15.62,2.71,31.45,5.05,46.94,2.63,15.29,4.15,25.41-15.02,27.84-8.21,1.06-24.9,5.98-28.71,1.57-2.32-3.42-1.23-7.12-.52-12.74,1.68-11.08,3.32-20.54,4.69-31.45,1.88-14.28,2.54-30.45,1.83-45.46-.25-6.58.8-13.18-3.11-18.82-4.95-6.29-10.15-11-18.17-14.22-13.2-4.92-45.03-5.03-34.82,16.01,4.44,11.19,7.46,21.36,10.61,32.59,2.84,14.41,1.95,29.51,1.32,44.14-.55,13.98,2.64,29.44-18.26,21.18-9.74-2.74-21.91-11.59-30.75-15.55-16.05-6.75-24.43,11.95-21.53,24.84,9.96,53.75,68.38,13.7,52.19,44.9-5.79,10.56-12.52,19.4-23.22,26.83-14.22,10.26-29.46,14.92-41.02,27.65-21.48,24.03-9.34,57.35,22.64,63.31,27.18,6.91,51.94-15.15,63.94-36.12,4.88-11.39,9.11-23.98,11.84-36.16,2.74-17.49,6.77-34.01,9.98-52.03,1.05-5.59,2.08-11.91,6.92-15.61,6.38-4.57,13.59-2.84,22.75-4.71,8.42-1.08,18.43-5.17,26.65-2.98,2.48.89,3.58,2.85,3.99,6.22.4,7.88.7,19.63-.37,27.88-3.32,12.7-8.01,26.3-15.67,36.93-7.19,11.64-19.74,21.92-27.8,33.43-11.9,21.29,19.24,25.46,34.48,22.07,18.51-2.02,35.82-5.65,53.6-8.61,14.56-5.82,4.07-20.54,1.61-31.01-13.27-40.97-14.52-84.91-7.46-126.6,4.86-38.1,53.95-89.12,38.23-125.63l-.35-.66ZM165.65,800.16s-.08,0-.08-.04h.08v.04ZM211.33,522.66h-.04v-.04h.04v.04ZM340.8,764.33c.04.08.04.12.04.2,0,.32-.04.6-.08.92.04-.36.04-.76.04-1.12ZM340.68,762.49c.04.2.04.44.04.64,0-.28-.04-.52-.08-.76.04.04.04.08.04.12Z"/>
    <path class="cls-3" d="M398.61,701.43c.73,11.22,3.65,32.39,4.34,42.38-.02,3.77-1.09,6.54-2.04,10.52-1.37,5.38-3.02,10.77-7.49,13.07-7.02,3.4-15.98,3.29-23.19,0-7.45-3.02-12.76-10.45-14.51-19.9-3.49-20.34,9.07-56.41,3.81-81.32-2.78-13.35-17.67-37.36.48-42.51,12.03-2.85,44.04-8.12,44.33,14.1.13,6.2-1.55,12.57-2.81,18.55-2.99,13.79-3.3,30.1-2.93,44.55l.02.56Z"/>
    <path class="cls-3" d="M406.81,597.46c-7.35,12.27-18.66,16.16-31.27,14.95-5.39-.51-8.58-2.13-12.57-5.51-3.73-3.12-6.32-5.11-7.52-10.87-1.83-8.78-2-18.95,4.49-25.93,7.15-7.6,10.61-10.25,22.69-11.61,3.23-.37,6.22-.55,8.05,1.14,5.92,5.36,11.14-.95,18.16,20.02,2.59,5.95.67,12.74-2.03,17.81Z"/>
    <path class="cls-3" d="M608.97,702.52c.83,10.22,4.13,29.5,4.93,38.6-.02,3.43-1.24,5.95-2.32,9.58-1.55,4.9-3.43,9.81-8.5,11.91-7.95,3.09-18.12,3-26.3,0-8.45-2.75-14.47-9.52-16.46-18.13-3.95-18.53,10.29-51.38,4.32-74.07-3.15-12.16-20.03-34.03.55-38.72,13.64-2.6,49.93-7.4,50.26,12.84.14,5.65-1.76,11.45-3.19,16.89-3.39,12.56-3.74,27.42-3.32,40.58l.03.51Z"/>
    <path class="cls-3" d="M607.22,605.36c-6.89,11.94-17.49,15.72-29.3,14.54-5.05-.5-8.04-2.07-11.78-5.36-3.49-3.04-5.92-4.97-7.04-10.58-1.71-8.54-1.87-18.44,4.21-25.23,6.7-7.4,9.94-9.97,21.26-11.29,3.02-.36,5.83-.54,7.54,1.11,5.55,5.22,10.44-.93,17.02,19.48,2.43,5.79.62,12.4-1.9,17.33Z"/>
    <path class="cls-3" d="M543.99,666.85c-2.56-6.16-7.26-11.69-13.18-15.46-4.87-3.32-11.25-4.84-11.01-8.88.67-5.23,5.22-10.37,7.67-15.05,10.59-15.98,17.05-37.7,2.22-53.23-20.32-21.99-54.78-20.37-83.07-21.39-8.63.1-19.62-3.79-25.39,3.65-3.26,5.75.03,13.26,1.71,19.22,3.39,8.99,4.39,18.51,4.63,28.19,1.26,14.02,1.08,30.04,1.45,44.14.47,26.02,1.55,51.54-1.16,77.43-1.66,10.63-4.97,20.39-7.58,30.48-2.45,13.89,14.44,8.76,23.28,8.03,6.87-.64,13.81-1.01,21.13-1.48,19.29-3.27,41.15-3.13,57.36-14.13,6.96-5.43,14.28-10.64,18.54-17.66,9.64-19.15,12.32-43.06,3.7-63.18l-.29-.68ZM425.19,559.9s-.04-.12-.04-.16l.25-.31-.21.47ZM438.39,759.03s0-.12.08-.16c.08,0,.17.04.25.04-.12.04-.21.08-.33.12ZM476.88,587.88c24.09-8.65,25.2,24.84,17.43,38.46-2.25,5.91-18.88,20.53-24.98,15.48-.24-2.73-.15-13.73-.28-23.49.75-11.07-3.57-23.24,7.21-30.14l.62-.3ZM505.59,702.25c-3.21,10.54-21.51,20.63-30.03,9.35-5.85-8.04-5.39-18.83-7.11-28.14-.95-5.99-1.22-13.15,3.66-17.73,4.3-4.31,11.81-3.35,17.73-3.02,3.13.18,5.89.51,8.25,1.44,14.92,6.67,14.58,25.75,7.76,37.55l-.26.56ZM512.76,686.91s-.04-.08-.04-.12h.08s-.04.08-.04.12ZM531.71,733.92c.17-.31.29-.47.46-.51l-.46.51Z"/>
    <path class="cls-3" d="M676.88,589.53c4.57-11.23,19.58-13.33,25.74-2.42,4.85,8.22,4.79,23.88,9.52,32.22,15.43,27.37,47.88,5.86,49.37-19.77,2.09-55.94-73.88-68.83-112.57-50.15-54.67,41.41-3.8,84,24.21,121.65,6.41,9.65,33.98,32.58,22.61,43.41-3.07,2.73-7.78,2.26-10.76-.47-7.47-6.75-5.9-19.43-12.14-27.42-11.49-17.39-35.7-7.75-44.41,7.73-15.61,28.16,6.58,63.61,32.28,75.54,23.99,10.78,52.39,9.01,76.31-3.37,12.71-8.64,23.75-24.46,24-40.4-.42-25.95-23.22-47.94-40.82-64.53-19.48-17.73-55.01-40.04-43.63-71.35l.3-.66ZM744.55,576.18v.08s-.04.04-.08.04c.04-.04.04-.08.08-.13ZM703.39,653.27s-.04-.04-.04-.04c0,0,.04-.08.04.04ZM671.49,595.56h-.04c.04-.13.04-.25.08-.34-.04.13-.04.21-.04.34Z"/>
    <path class="cls-3" d="M774.07,600.55c-5.69-12.61-6.2-26.98-2.68-40.37.6-2.47,1.39-4.85,2.27-7.23,1.2-3.13,4.07-4.89,7.03-5.95.05-.04.14-.04.19-.09,1.02-.35,1.99-.62,2.96-.84,3.01-.71,9.21.26,10.92,4.14,11.11,25.39-11.01,71.8-20.68,50.34Z"/>
  </g>
</svg>