<?xml version="1.0" encoding="UTF-8"?>
<svg id="Layer_1" data-name="Layer 1" xmlns="http://www.w3.org/2000/svg" xmlns:xlink="http://www.w3.org/1999/xlink" viewBox="0 0 1024 1024">
  <defs>
    <style>
      .cls-1 {
        filter: url(#drop-shadow-1);
      }

      .cls-2 {
        fill: #e97659;
      }
    </style>
    <filter id="drop-shadow-1" x="21.96" y="5.64" width="994.08" height="1026.72" filterUnits="userSpaceOnUse">
      <feOffset dx="7" dy="7"/>
      <feGaussianBlur result="blur" stdDeviation="5"/>
      <feFlood flood-color="#000" flood-opacity=".75"/>
      <feComposite in2="blur" operator="in"/>
      <feComposite in="SourceGraphic"/>
    </filter>
  </defs>
  <g class="cls-1">
    <path class="cls-2" d="M432.39,949.46c-.32.11-.74-.1-1.26-.47.63,1,.95,2.15.95,3.41.47,11.92-58.39,87.27-54.92,45.42,5.99-12.23,23.63-17.64,26.78-31.71-.95-7.67-10.55-11.97-10.97-20.27-1.1-8.51,1.52-18.27,4.99-26.25,5.04-12.13,25.31-20.27,35.65-11.03l.84.89c1.31,1.31,2.15,2.94,2.47,4.62.68,3.47-.95,6.98-5.04,7.61-2.99.42-5.51-.37-8.09-.63,1.58.84,3.05,2,5.3,2.05,2.26.21,5.36-1.05,7.67-1.73l.63.32c4.36,7.77,1.36,21.95-4.99,27.78Z"/>
    <path class="cls-2" d="M933.73,979.68c0,.61-.45,1.07-.97,1.07-.59,0-.97-.46-.97-1.07,0-.54.37-1,.97-1,.52,0,.97.46.97,1Z"/>
    <path class="cls-2" d="M799.53,78.28c.23,3.28-3.4,4.84-4.53,7.16-1.03-.46-2.17-.48-3.25-.23l-.7-5c.35-1.77-.74-5.59,1.21-6.32,1.59-.59,4.01-.18,5.87-.03,1.22.1,1.27,3.19,1.4,4.41Z"/>
    <path class="cls-2" d="M648.91,544.6c-.37.92-1.41,1.69-2.23,2.07-.52.31-1.41-.23-2.01-.08,1.26-1.07,2.6-1.99,4.24-1.99Z"/>
    <path class="cls-2" d="M843.43,93.72c-4.64,5.15-11.35.25-12.6-5.57-2.71-11.37-13.21-5.01-17.92.66-3.25,3.79,1.64,5.37,2.91,8.47,1.22,2.43-.14,5.06-2.77,4.58-3.3-.48-7.47-3.9-9.43-2.91-2.2.82-3.91,4.16-8.2,5.84-6.88,2.42-13.73,5.96-19.36,10.94-6.42,4.91-7.61,2.54-3.73-1.86,4.05-5.07,10.62-7.7,15.48-12.07,10.49-13.26,34.25-27.78,27.2-46.44-.2-1.7.02-3.34,1.01-5.01,12.72-16.05,24.96,7.22,24.13,20.12.71,7.83,8.61,15.2,4,22.33l-.7.92Z"/>
    <path class="cls-2" d="M265.09,686.56c-14.63-17.52-36.77-29.63-55.77-42.85-7.39-5.44-12.76-11.26-19.22-17.27-8.57-8.21-19.13-14.36-23.29-20.8-14.32-26.62-15.87-66.06.14-93.22,3.57-8.53,8.61-15.27,16.93-16.56,11.58-1.23,27.91,5.62,27.28,18.5-1.1,9.3-17.17,14.47-19.48,25.36-3.84,15.71,10.99,40.33,27.23,36.99,1.03-.73.72-1.95-.46-3.54-2.34-3.11-6.16-6.32-7.49-10.58-6.38-28.98,21.84-37.69,5.65-69.52-2.33-7.55,1.98-14.68,5.52-21.31,16.79-30.7,16.92-77.87.38-104.54-9.83-13.27-6.59-34.18,10.7-38.95,11.88-3.37,27.81-1.22,39.35,4.58,17.18,11.07,7.82,45.53,8.72,63.15-.86,19.43-4.9,53.19-5.13,76.02,4.57,26.29,31.52,73.08,4.87,93.86-6.78,3.32-16.08,2.61-23.02,4.99-8.64,2.85-5.19,7.74,2.68,9.06,10.92,1.58,22.4-2.21,31.81,3.61,14.19,9.98,34.54,24.58,37.4,41.57,3.11,20.07,2.8,36.25,11.23,56.01,19.11,51.07,43.11,103.9,58.63,134.83,9.14,18.81,27.09,53.72,32.2,65.51.6,1.97.82,3.32-.29,4.75-2.66,3.33-19.4,3.11-27.39,8.34-15.93,8.37-25.96,25.85-29.38,43.58-2.27,10.11-.09,21.29-3.17,29.69-7.46,17.93-28.56,11.75-37.39-1.9-2.8-3.6-4.03-6-4.78-10.03-3.7-22.99-19.92-125.31-26.33-165.55-2.83-17.55-4.05-28.73-11.06-47.2-8.65-18.24-14.21-38.99-26.19-55.46l-.91-1.13Z"/>
    <path class="cls-2" d="M317.98,538.78c0,.08-.07.08-.07.08v-.08h.07Z"/>
    <path class="cls-2" d="M133.71,461.66c-1.76,4.21-7.09,3.94-16.51,6.42-8.02,1.85-18.2,4.19-27.9,6.42-7.63,1.76-14.96,3.44-20.74,4.77-9.95,1.91-13.62,4.39-20.73,2.08-11.04-5.21-11.94-20.48-14.64-31.32-6.37-31.59-3.89-69.07,14.62-96.13,4.37-4.69,10.92-4.21,16.67-2.81,20.11,4.87,40.02,10.22,59.95,16.28,8.46,2.2,13.05,9.89,12.84,18.68-.28,24.91.2,50.34-3.2,74.77l-.34.84Z"/>
    <path class="cls-2" d="M203.53,479.01c-14.92,6.66-45.48-2.41-58.9-9.62-4.84-3.06-3.23-9.53-2.52-14.95,4.63-24.52,6.45-46.52,1.86-71.03-2.54-14.45,11.06-21.8,23.27-22.04,14.51.83,34.32-8.06,44.33,5.16,23.38,23.45,20.48,94.92-7.01,111.95l-1.02.54Z"/>
    <path class="cls-2" d="M650.34,748.67c1.47.05,3.05-.52,4.46.68,1.16,1.05.52,1.73.21,2.99-.89,0-1.84.21-2.99-.26-1.26-.37-2.89-1.84-1.68-3.41Z"/>
    <path class="cls-2" d="M700.02,778.97c-.05-.37-.05-.68-.05-1.05-1.05,1.52-2.99,1.94-6.67.26-.11-.16-.26-.32-.42-.47.11.26.05.52-.05.79l-.16.16c-1.21-.21-35.65-13.13-32.45-15.44-1.84-.37-4.2-.74-5.99-1.42l.63.63c-1.79,0-4.46.68-6.62-.05-1.05-.32-3.36-1.31-1.94-3.36l4.41-.47c.32.26.58.52.89.79-.11-.79.26-1.73,1.26-2.89,1.1-1.52,1.37-3.57,2.68-3.94,1.16.21,2.21.42,3.1.63,1.68.32,3.1.52,4.62.68,2.26.21,4.73.26,8.61.11,1.47.05,2.84.11,4.04,0,2.1-.05,3.89-.52,5.41-2.15.26-.16.42-.37.58-.58,1.42-.89,3.94-1.1,6.3-1.42-.21-.11-.32-.37-.21-.79.95-4.83,10.71-7.3,13.28-1.37,1.52,3.52,1.68,7.88-.58,11.13v.05c.89,2.94.68,6.62.63,9.24v.11c2.89-.42,2.78,3.52,2.99,5.67.32,3.83-.42,5.36-4.31,5.15Z"/>
    <path class="cls-2" d="M317.98,538.78c0,.08-.07.08-.07.08v-.08h.07Z"/>
    <path class="cls-2" d="M317.98,538.78c0,.08-.07.08-.07.08v-.08h.07Z"/>
    <path class="cls-2" d="M963.71,819.92c-11.24-4.41-13.18-18.53-7.09-28.46l.58-1.05c52.04-67.26,51.88-99.97-20.01-148.12-7.98-7.93-7.09-18.27-10.66-27.09-8.09-12.34-12.55-25.94-7.04-41.11,30.09-61.85,74.88-64.22,53.87-151.9-6.77-23.89-20.64-41.53-36.28-58.44-23.26-26.62-64.74-41.43-82.23-73.93-2.31-4.36-7.56-12.86-11.5-6.51-5.15,12.18-1.42,33.87-11.13,44.16-25.26,18.27-66,20.69-95.56,10.71-17.33-5.36-86.79-73.98-37.7-73.98,7.25,2.68-4.57,10.55-2.15,17.85,17.8,33.92,56.13,60.8,94.09,55.45,43-17.06,45.73-11.71,41.06-62.33-2.42-52.82-63.17-55.71-101.65-46.89-12.65,1.58-24.84,13.02-36.18,12.29-7.51-8.61,52.03-25.78,59.39-26.36,28.41-7.25,50.2-2.42,73.46,11.55,18.64,5.36,12.23-29.04,13.7-39.01-1.26-27.09-9.87-59.23-33.87-71.83-10.03-3.73-27.67-.42-32.13,10.24.63,7.46,1.05,8.09-6.83,8.98-9.29.16-11.71,8.3-20.53,10.76-6.62,1.63-5.04,4.36-5.3,9.29-.74,3.62-4.67,4.57-7.98,6.41-27.93,10.4-37.39,42.53-51.35,68.05-8.45,11.71-12.44-1.37-8.82-9.24,4.78-12.29,11.45-22.26,17.38-32.87,4.67-8.66,18.01-19.85,24.94-29.51,4.52-7.77,8.45-14.18,16.12-19.32,6.56-4.2,7.77-10.61,8.14-17.59.68-5.2,5.09-.47,10.34-2.68,1.68-.47,3.41-1.31,5.25-2.68,6.46-7.98,30.09-21.95,18.06-29.61-17.8-6.3-39.91,7.77-52.14,20.43-6.09,5.93-14.23,20.58-13.44,10.34,2.63-18.96,18.38-30.24,30.14-42.74,5.72-15.28-33.97-13.44-42.32-18.59-7.25-2.26-14.02-6.09-20.43-10.13-66.16-46.84-139.62-40.01-198.01,18.96-12.18,11.6-19.48,24.63-29.09,38.33-10.29,12.97-24.47,22.16-34.18,35.39-19.85,27.25-32.76,61.85-39.75,95.09-5.2,29.04,8.66,56.81,8.66,86.06-1.52,31.45-5.09,60.8-15.17,86.58-15.49,36.91-37.65-58.91-45.16-68.36-13.97-30.24-43.11-44.32-75.61-44.95-9.5-1.16-26.73,2.78-17.8,14.7,11.29,13.39,46.99,7.72,55.87,29.98,8.19,26.25,2.21,57.08,3.36,86.11.74,21.11-7.4,40.06-.73,60.54,10.76,29.09,22.63,54.19,29.3,83.96,8.72,16.12,25.2,22.05,38.12,35.71,9.5,9.71,14.54,21.42,19.69,33.92,14.86,38.65,32.76,78.08,51.77,115.78,27.93,47.78,75.61,151.27,140.04,101.23,23.84-25.94,36.23-64.48,59.33-89.26,4.67-4.62,16.59-5.25,18.9-11.5-.74-2.89-3.78-5.15-7.19-7.4q-.05,0-.11-.05c-2.52-1.58-5.2-3.1-7.3-4.78-.63-.47-1.21-1-1.68-1.52-9.87-7.35-16.22-16.75-19.85-27.2-.58-1.63-1.05-3.31-1.47-4.99-3.05-11.92-2.94-24.99-.63-37.91.1-.68.26-1.42.42-2.15,2.57-13.28,7.35-26.25,13.07-37.6,31.66-67.73-26.1-18.69-46.63.95-16.49,15.02-27.88,34.87-35.81,58.23-5.41,18.06-15.75,45.68-33.97,20.74-13.7-18.8-29.51-39.28-42.22-58.6-16.01-26.57-31.66-50.56-42.16-80.18-20.64-40.06-37.96-79.71-50.51-119.82-6.72-14.44,5.41-22.16,12.81-37.02,1.37-2.26,7.14-17.17,9.19-9.92,3.57,6.77-8.03,45,4.52,42.37,13.86-6.14,29.09-17.12,34.39-32.71,7.77-20.53-5.57-41.48-3.78-61.96,6.93-12.13,24.63,38.96,23.79,46.26,1.58,19.64-1.05,39.28,2.31,58.28,3.05,17.75,11.39,37.54,15.54,54.61,7.56,30.66,16.12-20.74,14.54-30.03.68-16.85-6.83-28.09-5.83-44.21,1.52-2.89,3.99,1.05,5.57,3.36,9.19,19.38,20.11,36.91,27.36,54.98,3.31,11.45,3.41,25.89.84,37.86-5.62,16.85-8.3,30.82,10.76,12.5,34.66-40.59,29.98-55.92,14.54-103.39,1.68-4.2,18.33,19.9,21.95,27.62,3.47,5.09,5.99,20.85,8.35,21.27,1.63.26,3.89-3.73,5.83-9.71,2.68-8.3,4.31-17.01,4.36-24.89,1.1-32.08,7.67.84,10.03,11.76,3.05,11.87,9.03,23.52,11.76,35.29,2.1,16.49-3.15,38.02-4.46,55.76-.16,6.51-8.4,20.9.89,22.16,18.69-3.52,31.98-19.48,44.63-32.29,6.2-2.99,8.4,11.92,9.71,15.86,11.39,59.96-63.85,94.67,3.41,149.38,14.75,13.86,39.22,19.48,56.39,25.78,25.52,18.12,8.35,65.63,40.12,83.96,80.86,51.67,42.58,101.39,104.91,142.51,15.54,10.34,36.97,26.31,57.6,24.36,10.5-1.31,20.43-11.45,16.59-13.65-2.68-2.15-13.55-.11-22.21-1.73-35.44-11.71-18.43-66.05,2.36-86.27,17.01-17.7,33.6-28.41,56.39-38.12,9.77-3.31,24.73-15.65,25.31-24.84-.95-7.04-16.54-.63-26.2-5.67ZM710.52,273.1l3.31-.84,5.09-.68,3.99-.47,3.05-.32c.26.1,3.41-.68,3.41-.68,3.78-1.16-.05-3.83-.05-3.83l-2.1-2.42c-2.78-4.1.68-5.88.68-5.88l2.05-.95,2.05-.52,3.57-.68,5.88-.74,2.78-.32,3.36-.58,1.31-.21,2.15-.63,5.36-2.42,7.46-3.99,7.4-3.99,5.46-2.78,3.68-1.58,2.89-1,1.58-.42,1.42-.16h1.05l.79.16.11.16-.11.58-.52.84-1.84,2.05-3.57,3.2-8.09,6.2-6.25,4.15-1.94,1.16-1.42.79-1.52.79-1.1.53-1,.42-.79.32-.89.26-.53.1-1.1.26-1.26.32-1.42.42-7.4,2.52-5.3,2.57c-4.83,2.99,1.47,3.83,1.47,3.83l7.09.58,8.14.16h12.44l3.15.05,3.36.21,3.62.42,1.42.32.58.26.42.32.21.32-.05.32-.16.32-.42.47-1.26.32-6.83,1-6.98.68-8.03.58-9.61.68-8.61.84-1.21.47-.47.63-.16.58.47.84.68.84.79.89,1.05,1,2.68,1.94,5.2,3.36,4.31,2.73,4.99,3.31,4.2,2.63,4.46,2.94,2.63,1.89,1.89,1.52,1.21,1.1.58,1-14.91-4.41-10.24-4.31-8.56-4.04-21.74-11.39-9.98-5.88-.16-.47.68-.52ZM788.75,120.62c2.47.11,4.41,1.16,6.62,2.15.26,3.52-1.73,6.56-5.04,7.46-2.31-.79-4.78-2.47-4.94-5.25-.16-2.42,1.37-4.36,3.36-4.36ZM771.32,143.51c1.47-.05,2.99,1.63,4.52,1.79.37,2.15-.68,4.88-.11,6.98-1.73.21-3.68.52-5.83.21-1.52-.32-3.15-2.47-2.94-5.36.21-2.78,2.57-3.47,4.36-3.62ZM756.73,97.2c.53,1.16.05,2.42-1,3.05-1.1.63-2.94.37-3.15-2.89,1.94-2.42,3.68-1.31,4.15-.16ZM318.55,536.8v-.05h.05c0,.05-.05.05-.05.05ZM675.02,322.25c-3.31,2.15-18.38-6.72-20.22-10.29-2.73-5.88,5.36-20.64,1.58-25.26-7.14-5.09-11.39,38.7-16.7,38.12-3.52-2.05,4.94-34.34-2.73-29.72-1.37,1.05-3.73,3.1-5.09,3.36-4.41-.37,7.35-15.49,9.29-18.12,4.62-5.67,9.45-10.4,12.71-9.71,11.5,7.35,14.54,27.67,16.64,40.43l4.52,11.18ZM672.71,206.89l-.37.32c-2.47-.63-8.35-15.44-10.45-17.33-1.1-1.37-1.79-1.26-2.57-.05-6.98,18.22-13.76-4.46-18.8-11.6-3.26-6.93-29.19-23.68-29.88-31.45.95-2.57,26.04,13.02,30.45,19.85,4.41,6.98,20.22,25.68,12.97,4.83-2.52-9.08-14.91-36.13-8.87-32.71,3.89,5.09,13.7,27.83,16.49,33.6,2.21,4.88,3.83,7.3,6.14,1.26,1.79-3.1,7.3-37.7,9.92-38.54,3.52,15.02-1.94,57.02-5.04,71.83ZM584.82,69.11l1.05-.84c13.13-11.45,31.66-9.08,47.83-9.45,27.41-2.47,57.55,19.11,59.07,48.99-1.84,8.66-8.51-11.24-11.13-14.07-4.88-7.82-12.18-14.96-20.53-18.64-6.2-2.78-12.97-3.89-19.69-3.52-15.75.89-24.42,14.86-37.49,18.11-11.34,2.89-30.14-3.94-31.82,13.81-2.94,27.2,12.65,50.56,24.99,74.25,8.14,12.76,28.25,24.57,41.53,38.07,4.57,4.88,7.88,10.13,4.15,15.65-5.25,6.56-15.91,9.56-13.6,20.06.21,4.04-.11,7.67-3.78,9.87-3.68,2.47-15.17,11.71-19.22,11.08-2.15-.84,5.36-11.5,5.46-13.18.84-2.73-29.4-2.99-31.92-5.15-7.04-5.51,24.21-11.34,26.46-14.44,1.26-2.15-12.81-11.71-12.81-14.02-1.31-5.46,35.5,7.25,35.07,2.84-2.31-8.82-11.6-16.01-16.75-23.73-16.01-20.85-39.91-32.45-50.72-56.76-12.13-27.67.32-62.54,23.84-78.92ZM579.72,328.29c-8.14,7.67-20.37,10.87-30.14,4.62-22.68-12.18-38.07-36.23-43.53-62.43-2.94-13.44,3.78-26.78,7.09-39.33,2.78-17.17,12.71-35.76,29.14-43.79,7.61-3.89,23.89-2.31,29.61,2.15.79,1,.32,1.94-1.36,2.78-5.3,2.47-12.76,3.62-17.91,7.09-15.7,9.82-13.7,31.71-27.09,44.53-10.92,10.97-11.24,17.54,1.52,27.46,8.56,7.77,14.44,16.22,22.84,23.42,8.82,7.25,20.53,10.45,31.82,8.77,19.38-4.25,29.09-28.25,46.89-36.86,21.32-11.81,40.22-11.87,9.19,4.41-24.1,11.66-39.8,39.49-57.18,56.34l-.89.84ZM705.69,370.35l-.42,1.21c-7.56,22.53-26.94,35.34-47.36,43.53-8.87,5.25-19.22,10.5-28.98,4.83-4.52-2.31-8.03-5.67-12.08-8.87-9.56-8.3-24.89-14.65-30.87-27.57-4.41-17.01-3.31-35.91,2.1-52.45,1.89-5.36,7.82-14.81,7.56-1.52-.16,14.07-2.99,29.04.84,42.85,3.1,10.29,9.98,16.38,18.54,25.2,3.15,3.1,7.3,7.19,11.5,7.51,3.1.26,5.83-1.73,8.35-3.68,9.08-7.19,18.33-12.92,28.3-17.96,38.33-15.86,34.5-28.3,31.14-65.63,0-1.63-.1-4.04,1.16-4.62,3.1.21,4.62,5.83,5.41,8.87,2.78,13.97,10.71,33.76,4.83,48.31ZM923.17,976.65c.52,0,.89.42.89,1s-.37,1.05-.89,1.05c-.63,0-1-.47-1-1.05s.37-1,1-1Z"/>
  </g>
</svg>